<svg xmlns="http://www.w3.org/2000/svg" viewBox="-79.5 57.88 1674.86 847.18" width="1674.86" height="847.18" font-family='Nunito, "Avenir Next", "Segoe UI", Helvetica, Arial, sans-serif'>
<defs><pattern id="p0" patternUnits="userSpaceOnUse" width="8" height="8"><path d="M-2,2 l4,-4 M0,8 l8,-8 M6,10 l4,-4 M-2,6 l4,4 M0,0 l8,8 M6,-2 l4,4" stroke="#ffd8a8" stroke-width="1.2" fill="none"/></pattern><pattern id="p1" patternUnits="userSpaceOnUse" width="8" height="8"><path d="M-2,2 l4,-4 M0,8 l8,-8 M6,10 l4,-4 M-2,6 l4,4 M0,0 l8,8 M6,-2 l4,4" stroke="#ffec99" stroke-width="1.2" fill="none"/></pattern><pattern id="p2" patternUnits="userSpaceOnUse" width="8" height="8"><path d="M-2,2 l4,-4 M0,8 l8,-8 M6,10 l4,-4" stroke="#e9ecef" stroke-width="1.2" fill="none"/></pattern><pattern id="p3" patternUnits="userSpaceOnUse" width="8" height="8"><path d="M-2,2 l4,-4 M0,8 l8,-8 M6,10 l4,-4" stroke="#74c0fc" stroke-width="1.2" fill="none"/></pattern><pattern id="p4" patternUnits="userSpaceOnUse" width="8" height="8"><path d="M-2,2 l4,-4 M0,8 l8,-8 M6,10 l4,-4" stroke="#a5d8ff" stroke-width="1.2" fill="none"/></pattern><pattern id="p5" patternUnits="userSpaceOnUse" width="8" height="8"><path d="M-2,2 l4,-4 M0,8 l8,-8 M6,10 l4,-4" stroke="#ffd8a8" stroke-width="1.2" fill="none"/></pattern></defs>
<rect x="-79.5" y="57.88" width="1674.86" height="847.18" fill="#ffffff"/>
<g opacity="0.1"><rect x="-37.05" y="458.01" width="707.64" height="60.54" rx="15.13" fill="#e9ecef" stroke="#243447" stroke-width="1"/></g>
<g opacity="0.1"><rect x="-46.92" y="553.3" width="1393.68" height="76.13" rx="19.03" fill="#e9ecef" stroke="#243447" stroke-width="1"/></g>
<g opacity="0.1"><rect x="-39.26" y="223.03" width="707.64" height="230.58" rx="32" fill="#e9ecef" stroke="#243447" stroke-width="1"/></g>
<g opacity="0.1"><rect x="-39.85" y="156.49" width="707.64" height="60.54" rx="15.13" fill="#e9ecef" stroke="#243447" stroke-width="1"/></g>
<g><polyline points="55.09,123.96 55.09,875.58" fill="none" stroke="#334155" stroke-width="2" stroke-linecap="round" stroke-linejoin="round"/></g>
<g><polyline points="648.99,123.96 648.99,504.06" fill="none" stroke="#334155" stroke-width="2" stroke-linecap="round" stroke-linejoin="round"/></g>
<g><polyline points="55.09,153.66 648.99,153.66" fill="none" stroke="#334155" stroke-width="2" stroke-linecap="round" stroke-linejoin="round"/></g>
<g><polyline points="173.57,144.43 173.57,877.06" fill="none" stroke="#94a3b8" stroke-width="2" stroke-linecap="round" stroke-linejoin="round" stroke-dasharray="8 10"/></g>
<g><polyline points="292.65,147.37 292.65,874.84" fill="none" stroke="#94a3b8" stroke-width="2" stroke-linecap="round" stroke-linejoin="round" stroke-dasharray="8 10"/></g>
<g><polyline points="411.26,149.47 411.26,868.79" fill="none" stroke="#94a3b8" stroke-width="2" stroke-linecap="round" stroke-linejoin="round" stroke-dasharray="8 10"/></g>
<g><polyline points="529.71,144.37 529.71,871.62" fill="none" stroke="#94a3b8" stroke-width="2" stroke-linecap="round" stroke-linejoin="round" stroke-dasharray="8 10"/></g>
<g><text x="90.11" y="95.96" text-anchor="middle" dominant-baseline="central" font-family='Nunito, "Avenir Next", "Segoe UI", Helvetica, Arial, sans-serif' font-size="13.66" fill="#243447">propose</text><text x="90.11" y="114.4" text-anchor="middle" dominant-baseline="central" font-family='Nunito, "Avenir Next", "Segoe UI", Helvetica, Arial, sans-serif' font-size="13.66" fill="#243447">beacon block</text></g>
<g><text x="225.47" y="129.98" text-anchor="middle" dominant-baseline="central" font-family='Nunito, "Avenir Next", "Segoe UI", Helvetica, Arial, sans-serif' font-size="13.66" fill="#243447">heartbeat vote</text></g>
<g><text x="337.73" y="129.98" text-anchor="middle" dominant-baseline="central" font-family='Nunito, "Avenir Next", "Segoe UI", Helvetica, Arial, sans-serif' font-size="13.66" fill="#243447">fast confirm</text></g>
<g><text x="463.09" y="95.63" text-anchor="middle" dominant-baseline="central" font-family='Nunito, "Avenir Next", "Segoe UI", Helvetica, Arial, sans-serif' font-size="13.66" fill="#243447">payload vote</text></g>
<g><text x="594.12" y="95.1" text-anchor="middle" dominant-baseline="central" font-family='Nunito, "Avenir Next", "Segoe UI", Helvetica, Arial, sans-serif' font-size="13.66" fill="#243447">available confirm</text></g>
<g><polyline points="55.09,254.62 173.87,254.62" fill="none" stroke="#e9b949" stroke-width="5" stroke-linecap="round" stroke-linejoin="round"/><polyline points="146.05,243.38 173.87,254.62 146.05,265.86" fill="none" stroke="#e9b949" stroke-width="5" stroke-linecap="round" stroke-linejoin="round"/></g>
<g><text x="99.84" y="274.52" text-anchor="middle" dominant-baseline="central" font-family='Nunito, "Avenir Next", "Segoe UI", Helvetica, Arial, sans-serif' font-size="11.88" fill="#243447">beacon block</text></g>
<g><polyline points="173.87,254.62 292.65,254.62" fill="none" stroke="#70c1a5" stroke-width="5" stroke-linecap="round" stroke-linejoin="round"/><polyline points="264.83,243.38 292.65,254.62 264.83,265.86" fill="none" stroke="#70c1a5" stroke-width="5" stroke-linecap="round" stroke-linejoin="round"/></g>
<g><text x="221.71" y="274.52" text-anchor="middle" dominant-baseline="central" font-family='Nunito, "Avenir Next", "Segoe UI", Helvetica, Arial, sans-serif' font-size="11.88" fill="#243447">beacon votes</text></g>
<g><polyline points="411.43,299.16 530.21,299.16" fill="none" stroke="#74c0fc" stroke-width="5" stroke-linecap="round" stroke-linejoin="round"/><polyline points="502.39,287.92 530.21,299.16 502.39,310.4" fill="none" stroke="#74c0fc" stroke-width="5" stroke-linecap="round" stroke-linejoin="round"/></g>
<g><text x="463.87" y="319.06" text-anchor="middle" dominant-baseline="central" font-family='Nunito, "Avenir Next", "Segoe UI", Helvetica, Arial, sans-serif' font-size="11.88" fill="#243447">payload votes</text></g>
<g><polyline points="173.87,334.8 233.26,334.8" fill="none" stroke="#f4a261" stroke-width="5" stroke-linecap="round" stroke-linejoin="round"/><polyline points="205.72,323.67 233.26,334.8 205.72,345.92" fill="none" stroke="#f4a261" stroke-width="5" stroke-linecap="round" stroke-linejoin="round"/></g>
<g><polyline points="233.26,334.8 292.65,334.8" fill="none" stroke="#f4a261" stroke-width="5" stroke-linecap="round" stroke-linejoin="round"/><polyline points="265.12,323.67 292.65,334.8 265.12,345.92" fill="none" stroke="#f4a261" stroke-width="5" stroke-linecap="round" stroke-linejoin="round"/></g>
<g><polyline points="292.65,334.8 352.04,334.8" fill="none" stroke="#f4a261" stroke-width="5" stroke-linecap="round" stroke-linejoin="round"/><polyline points="324.51,323.67 352.04,334.8 324.51,345.92" fill="none" stroke="#f4a261" stroke-width="5" stroke-linecap="round" stroke-linejoin="round"/></g>
<g><polyline points="352.04,334.8 411.43,334.8" fill="none" stroke="#f4a261" stroke-width="5" stroke-linecap="round" stroke-linejoin="round"/><polyline points="383.9,323.67 411.43,334.8 383.9,345.92" fill="none" stroke="#f4a261" stroke-width="5" stroke-linecap="round" stroke-linejoin="round"/></g>
<g><text x="234.49" y="356" text-anchor="middle" dominant-baseline="central" font-family='Nunito, "Avenir Next", "Segoe UI", Helvetica, Arial, sans-serif' font-size="11.88" fill="#243447">propagate</text></g>
<g><polyline points="233.26,477.93 559.9,477.93" fill="none" stroke="#b197fc" stroke-width="5" stroke-linecap="round" stroke-linejoin="round"/><polyline points="532.09,466.69 559.9,477.93 532.09,489.16" fill="none" stroke="#b197fc" stroke-width="5" stroke-linecap="round" stroke-linejoin="round"/></g>
<g><text x="335.19" y="496.05" text-anchor="middle" dominant-baseline="central" font-family='Nunito, "Avenir Next", "Segoe UI", Helvetica, Arial, sans-serif' font-size="11.88" fill="#243447">execute</text></g>
<g><polyline points="559.9,477.93 648.99,477.93" fill="none" stroke="#63c5bd" stroke-width="5" stroke-linecap="round" stroke-linejoin="round"/><polyline points="621.17,466.69 648.99,477.93 621.17,489.16" fill="none" stroke="#63c5bd" stroke-width="5" stroke-linecap="round" stroke-linejoin="round"/></g>
<g><text x="597.7" y="497.82" text-anchor="middle" dominant-baseline="central" font-family='Nunito, "Avenir Next", "Segoe UI", Helvetica, Arial, sans-serif' font-size="11.88" fill="#243447">build</text></g>
<g><polyline points="237.58,409.03 411.43,409.03" fill="none" stroke="#e5989b" stroke-width="5" stroke-linecap="round" stroke-linejoin="round"/><polyline points="383.61,397.8 411.43,409.03 383.61,420.27" fill="none" stroke="#e5989b" stroke-width="5" stroke-linecap="round" stroke-linejoin="round"/></g>
<g><text x="337.89" y="427.11" text-anchor="middle" dominant-baseline="central" font-family='Nunito, "Avenir Next", "Segoe UI", Helvetica, Arial, sans-serif' font-size="11.88" fill="#243447">sample</text></g>
<g><ellipse cx="529.42" cy="95.93" rx="5.05" ry="4.63" fill="#a5d8ff" stroke="#1e1e1e" stroke-width="1"/></g>
<g><ellipse cx="292.49" cy="129.98" rx="5.05" ry="4.63" fill="#70c1a5" stroke="#1e1e1e" stroke-width="1"/></g>
<g><ellipse cx="173.66" cy="129.98" rx="5.05" ry="4.63" fill="#70c1a5" stroke="#1e1e1e" stroke-width="1"/></g>
<g><ellipse cx="412.99" cy="96.56" rx="5.05" ry="4.63" fill="#a5d8ff" stroke="#1e1e1e" stroke-width="1"/></g>
<g><ellipse cx="53.71" cy="97.28" rx="5.05" ry="4.63" fill="#e9b949" stroke="#243447" stroke-width="1"/></g>
<g><polyline points="555.19,177.1 647.68,177.1" fill="none" stroke="#243447" stroke-width="1" stroke-linecap="round" stroke-linejoin="round"/><polyline points="628.08,167.11 647.68,177.1 628.08,187.09" fill="none" stroke="#243447" stroke-width="1" stroke-linecap="round" stroke-linejoin="round"/><polyline points="574.8,187.09 555.19,177.1 574.8,167.11" fill="none" stroke="#243447" stroke-width="1" stroke-linecap="round" stroke-linejoin="round"/></g>
<g><text x="600.06" y="196.13" text-anchor="middle" dominant-baseline="central" font-family='Nunito, "Avenir Next", "Segoe UI", Helvetica, Arial, sans-serif' font-size="11.88" fill="#243447">freeze</text></g>
<g opacity="0.8"><text x="-28.77" y="237.41" text-anchor="start" dominant-baseline="central" font-family='Nunito, "Avenir Next", "Segoe UI", Helvetica, Arial, sans-serif' font-size="9.5" fill="#94a3b8">network</text></g>
<g opacity="0.8"><text x="-25.69" y="472.22" text-anchor="start" dominant-baseline="central" font-family='Nunito, "Avenir Next", "Segoe UI", Helvetica, Arial, sans-serif' font-size="9.5" fill="#94a3b8">execution</text></g>
<g opacity="0.8"><text x="-28.48" y="170.7" text-anchor="start" dominant-baseline="central" font-family='Nunito, "Avenir Next", "Segoe UI", Helvetica, Arial, sans-serif' font-size="9.5" fill="#94a3b8">consensus (logical)</text></g>
<g><polyline points="56.66,177.1 172.58,177.1" fill="none" stroke="#243447" stroke-width="1" stroke-linecap="round" stroke-linejoin="round"/><polyline points="152.98,167.11 172.58,177.1 152.98,187.09" fill="none" stroke="#243447" stroke-width="1" stroke-linecap="round" stroke-linejoin="round"/><polyline points="76.26,187.09 56.66,177.1 76.26,167.11" fill="none" stroke="#243447" stroke-width="1" stroke-linecap="round" stroke-linejoin="round"/></g>
<g><text x="115.83" y="199.81" text-anchor="middle" dominant-baseline="central" font-family='Nunito, "Avenir Next", "Segoe UI", Helvetica, Arial, sans-serif' font-size="11.88" fill="#243447">propose</text></g>
<g><polyline points="175.14,177.1 289.9,177.1" fill="none" stroke="#243447" stroke-width="1" stroke-linecap="round" stroke-linejoin="round"/><polyline points="270.29,167.11 289.9,177.1 270.29,187.09" fill="none" stroke="#243447" stroke-width="1" stroke-linecap="round" stroke-linejoin="round"/><polyline points="194.75,187.09 175.14,177.1 194.75,167.11" fill="none" stroke="#243447" stroke-width="1" stroke-linecap="round" stroke-linejoin="round"/></g>
<g><text x="234.11" y="198.57" text-anchor="middle" dominant-baseline="central" font-family='Nunito, "Avenir Next", "Segoe UI", Helvetica, Arial, sans-serif' font-size="11.88" fill="#243447">vote</text></g>
<g><polyline points="296.79,177.1 396.06,177.1" fill="none" stroke="#243447" stroke-width="1" stroke-linecap="round" stroke-linejoin="round"/><polyline points="376.46,167.11 396.06,177.1 376.46,187.09" fill="none" stroke="#243447" stroke-width="1" stroke-linecap="round" stroke-linejoin="round"/><polyline points="316.39,187.09 296.79,177.1 316.39,167.11" fill="none" stroke="#243447" stroke-width="1" stroke-linecap="round" stroke-linejoin="round"/></g>
<g><text x="347.17" y="197.67" text-anchor="middle" dominant-baseline="central" font-family='Nunito, "Avenir Next", "Segoe UI", Helvetica, Arial, sans-serif' font-size="11.88" fill="#243447">confirm</text></g>
<g><text x="592.73" y="129.98" text-anchor="middle" dominant-baseline="central" font-family='Nunito, "Avenir Next", "Segoe UI", Helvetica, Arial, sans-serif' font-size="13.66" fill="#243447">freeze</text></g>
<g><ellipse cx="561.25" cy="129.98" rx="5.05" ry="4.63" fill="#70c1a5" stroke="#1e1e1e" stroke-width="1"/></g>
<g opacity="0.8"><rect x="181.18" y="310.48" width="25.72" height="15.06" rx="3.76" fill="url(#p0)" stroke="#f08c00" stroke-width="1"/></g>
<g opacity="0.8"><rect x="240.03" y="311.43" width="25.72" height="15.06" rx="3.76" fill="url(#p0)" stroke="#f08c00" stroke-width="1"/></g>
<g opacity="0.8"><rect x="299.22" y="310.65" width="25.72" height="15.06" rx="3.76" fill="url(#p0)" stroke="#f08c00" stroke-width="1"/></g>
<g opacity="0.8"><rect x="359.44" y="311.45" width="25.72" height="15.06" rx="3.76" fill="url(#p0)" stroke="#f08c00" stroke-width="1"/></g>
<g opacity="0.8"><rect x="79.61" y="230.08" width="53.91" height="15.06" rx="3.76" fill="url(#p1)" stroke="#e9b949" stroke-width="1"/></g>
<g opacity="0.8"><ellipse cx="230.76" cy="243.55" rx="40.09" ry="15.98" fill="url(#p2)" stroke="#099268" stroke-width="1"/></g>
<g opacity="0.8"><text x="230.76" y="243.55" text-anchor="middle" dominant-baseline="central" font-family='Nunito, "Avenir Next", "Segoe UI", Helvetica, Arial, sans-serif' font-size="9.5" fill="#099268">512-to-all</text></g>
<g opacity="0.8"><ellipse cx="467.38" cy="286.48" rx="40.09" ry="15.98" fill="url(#p3)" stroke="#228be6" stroke-width="1"/></g>
<g opacity="0.8"><text x="467.38" y="286.48" text-anchor="middle" dominant-baseline="central" font-family='Nunito, "Avenir Next", "Segoe UI", Helvetica, Arial, sans-serif' font-size="9.5" fill="#228be6">512-to-all</text></g>
<g opacity="0.5"><polyline points="293.72,254.72 646.81,255.86" fill="none" stroke="#70c1a5" stroke-width="4" stroke-linecap="round" stroke-linejoin="round"/><polyline points="619.03,244.53 646.81,255.86 618.96,267.01" fill="none" stroke="#70c1a5" stroke-width="4" stroke-linecap="round" stroke-linejoin="round"/></g>
<g><polyline points="648.49,124.67 648.49,870.81" fill="none" stroke="#334155" stroke-width="2" stroke-linecap="round" stroke-linejoin="round"/></g>
<g><polyline points="1242.22,124.67 1242.22,771.69" fill="none" stroke="#334155" stroke-width="2" stroke-linecap="round" stroke-linejoin="round"/></g>
<g><text x="371.27" y="597.29" text-anchor="middle" dominant-baseline="central" font-family='Nunito, "Avenir Next", "Segoe UI", Helvetica, Arial, sans-serif' font-size="11.88" fill="#243447">round</text></g>
<g><polyline points="649.92,591.37 649.92,591.37" fill="none" stroke="#243447" stroke-width="1" stroke-linecap="round" stroke-linejoin="round"/><polyline points="649.92,591.37 649.92,591.37 649.92,591.37" fill="none" stroke="#243447" stroke-width="1" stroke-linecap="round" stroke-linejoin="round"/><polyline points="649.92,591.37 649.92,591.37 649.92,591.37" fill="none" stroke="#243447" stroke-width="1" stroke-linecap="round" stroke-linejoin="round"/></g>
<g opacity="0.8"><text x="-32.67" y="574.58" text-anchor="start" dominant-baseline="central" font-family='Nunito, "Avenir Next", "Segoe UI", Helvetica, Arial, sans-serif' font-size="9.5" fill="#94a3b8">consensus (logical)</text></g>
<g><polyline points="767.62,143.67 767.62,872.2" fill="none" stroke="#94a3b8" stroke-width="2" stroke-linecap="round" stroke-linejoin="round" stroke-dasharray="8 10"/></g>
<g><polyline points="886.32,146.78 886.32,868.82" fill="none" stroke="#94a3b8" stroke-width="2" stroke-linecap="round" stroke-linejoin="round" stroke-dasharray="8 10"/></g>
<g><polyline points="1005.28,149.4 1005.28,862.83" fill="none" stroke="#94a3b8" stroke-width="2" stroke-linecap="round" stroke-linejoin="round" stroke-dasharray="8 10"/></g>
<g><polyline points="1123.54,144.15 1123.54,860.52" fill="none" stroke="#94a3b8" stroke-width="2" stroke-linecap="round" stroke-linejoin="round" stroke-dasharray="8 10"/></g>
<g><polyline points="1242,124.01 1242,865.56" fill="none" stroke="#334155" stroke-width="2" stroke-linecap="round" stroke-linejoin="round"/></g>
<g><polyline points="1150.82,480.27 1239.91,480.27" fill="none" stroke="#63c5bd" stroke-width="5" stroke-linecap="round" stroke-linejoin="round"/><polyline points="1212.09,469.03 1239.91,480.27 1212.09,491.5" fill="none" stroke="#63c5bd" stroke-width="5" stroke-linecap="round" stroke-linejoin="round"/></g>
<g><text x="1189.32" y="499.6" text-anchor="middle" dominant-baseline="central" font-family='Nunito, "Avenir Next", "Segoe UI", Helvetica, Arial, sans-serif' font-size="11.88" fill="#243447">build</text></g>
<g><polyline points="64.86,576.39 1218.92,576.39" fill="none" stroke="#243447" stroke-width="1" stroke-linecap="round" stroke-linejoin="round"/><polyline points="1199.31,566.4 1218.92,576.39 1199.31,586.37" fill="none" stroke="#243447" stroke-width="1" stroke-linecap="round" stroke-linejoin="round"/><polyline points="84.46,586.37 64.86,576.39 84.46,566.4" fill="none" stroke="#243447" stroke-width="1" stroke-linecap="round" stroke-linejoin="round"/></g>
<g opacity="0.1"><rect x="-51.5" y="659.8" width="1393.7" height="182.3" rx="32" fill="#e9ecef" stroke="#243447" stroke-width="1"/></g>
<g><text x="-28.1" y="678.21" text-anchor="start" dominant-baseline="central" font-family='Nunito, "Avenir Next", "Segoe UI", Helvetica, Arial, sans-serif' font-size="9.5" fill="#94a3b8">network</text></g>
<g opacity="0.5"><polyline points="25.09,777.8 55.09,777.8" fill="none" stroke="#1971c2" stroke-width="5" stroke-linecap="round" stroke-linejoin="round"/><polyline points="41.18,772.18 55.09,777.8 41.18,783.42" fill="none" stroke="#1971c2" stroke-width="5" stroke-linecap="round" stroke-linejoin="round"/></g>
<g><polyline points="55.09,777.8 252.91,777.8" fill="none" stroke="#e8590c" stroke-width="5" stroke-linecap="round" stroke-linejoin="round"/><polyline points="225.09,766.56 252.91,777.8 225.09,789.04" fill="none" stroke="#e8590c" stroke-width="5" stroke-linecap="round" stroke-linejoin="round"/></g>
<g><polyline points="55.09,701.8 252.91,701.8" fill="none" stroke="#1971c2" stroke-width="5" stroke-linecap="round" stroke-linejoin="round"/><polyline points="225.09,690.56 252.91,701.8 225.09,713.04" fill="none" stroke="#1971c2" stroke-width="5" stroke-linecap="round" stroke-linejoin="round"/></g>
<g><polyline points="252.91,701.8 450.72,701.8" fill="none" stroke="#e8590c" stroke-width="5" stroke-linecap="round" stroke-linejoin="round"/><polyline points="422.91,690.56 450.72,701.8 422.91,713.04" fill="none" stroke="#e8590c" stroke-width="5" stroke-linecap="round" stroke-linejoin="round"/></g>
<g><polyline points="252.91,739.8 450.72,739.8" fill="none" stroke="#1971c2" stroke-width="5" stroke-linecap="round" stroke-linejoin="round"/><polyline points="422.91,728.56 450.72,739.8 422.91,751.04" fill="none" stroke="#1971c2" stroke-width="5" stroke-linecap="round" stroke-linejoin="round"/></g>
<g><polyline points="450.72,739.8 648.54,739.8" fill="none" stroke="#e8590c" stroke-width="5" stroke-linecap="round" stroke-linejoin="round"/><polyline points="620.73,728.56 648.54,739.8 620.73,751.04" fill="none" stroke="#e8590c" stroke-width="5" stroke-linecap="round" stroke-linejoin="round"/></g>
<g><polyline points="450.72,777.8 648.54,777.8" fill="none" stroke="#1971c2" stroke-width="5" stroke-linecap="round" stroke-linejoin="round"/><polyline points="620.73,766.56 648.54,777.8 620.73,789.04" fill="none" stroke="#1971c2" stroke-width="5" stroke-linecap="round" stroke-linejoin="round"/></g>
<g><polyline points="648.54,777.8 846.36,777.8" fill="none" stroke="#e8590c" stroke-width="5" stroke-linecap="round" stroke-linejoin="round"/><polyline points="818.55,766.56 846.36,777.8 818.55,789.04" fill="none" stroke="#e8590c" stroke-width="5" stroke-linecap="round" stroke-linejoin="round"/></g>
<g><polyline points="648.54,701.8 846.36,701.8" fill="none" stroke="#1971c2" stroke-width="5" stroke-linecap="round" stroke-linejoin="round"/><polyline points="818.55,690.56 846.36,701.8 818.55,713.04" fill="none" stroke="#1971c2" stroke-width="5" stroke-linecap="round" stroke-linejoin="round"/></g>
<g><polyline points="846.36,701.8 1044.18,701.8" fill="none" stroke="#e8590c" stroke-width="5" stroke-linecap="round" stroke-linejoin="round"/><polyline points="1016.37,690.56 1044.18,701.8 1016.37,713.04" fill="none" stroke="#e8590c" stroke-width="5" stroke-linecap="round" stroke-linejoin="round"/></g>
<g><polyline points="846.36,739.8 1044.18,739.8" fill="none" stroke="#1971c2" stroke-width="5" stroke-linecap="round" stroke-linejoin="round"/><polyline points="1016.37,728.56 1044.18,739.8 1016.37,751.04" fill="none" stroke="#1971c2" stroke-width="5" stroke-linecap="round" stroke-linejoin="round"/></g>
<g><polyline points="1044.18,739.8 1242,739.8" fill="none" stroke="#e8590c" stroke-width="5" stroke-linecap="round" stroke-linejoin="round"/><polyline points="1214.18,728.56 1242,739.8 1214.18,751.04" fill="none" stroke="#e8590c" stroke-width="5" stroke-linecap="round" stroke-linejoin="round"/></g>
<g><polyline points="1044.18,777.8 1242,777.8" fill="none" stroke="#1971c2" stroke-width="5" stroke-linecap="round" stroke-linejoin="round"/><polyline points="1214.18,766.56 1242,777.8 1214.18,789.04" fill="none" stroke="#1971c2" stroke-width="5" stroke-linecap="round" stroke-linejoin="round"/></g>
<g opacity="0.5"><polyline points="1242,777.8 1334.2,777.8" fill="none" stroke="#e8590c" stroke-width="5" stroke-linecap="round" stroke-linejoin="round"/></g>
<g><text x="59.09" y="716.21" text-anchor="start" dominant-baseline="central" font-family='Nunito, "Avenir Next", "Segoe UI", Helvetica, Arial, sans-serif' font-size="9.5" fill="#243447">u(3i)</text></g>
<g><text x="256.91" y="754.21" text-anchor="start" dominant-baseline="central" font-family='Nunito, "Avenir Next", "Segoe UI", Helvetica, Arial, sans-serif' font-size="9.5" fill="#243447">u(3i+1)</text></g>
<g><text x="454.72" y="792.21" text-anchor="start" dominant-baseline="central" font-family='Nunito, "Avenir Next", "Segoe UI", Helvetica, Arial, sans-serif' font-size="9.5" fill="#243447">u(3i+2)</text></g>
<g><text x="652.54" y="716.21" text-anchor="start" dominant-baseline="central" font-family='Nunito, "Avenir Next", "Segoe UI", Helvetica, Arial, sans-serif' font-size="9.5" fill="#243447">u(3i+3)</text></g>
<g opacity="0.8"><ellipse cx="164.54" cy="682.8" rx="60" ry="15" fill="url(#p4)" stroke="#1971c2" stroke-width="1"/></g>
<g><text x="164.54" y="682.8" text-anchor="middle" dominant-baseline="central" font-family='Nunito, "Avenir Next", "Segoe UI", Helvetica, Arial, sans-serif' font-size="9.5" fill="#1971c2">V′/23 → aggregators</text></g>
<g opacity="0.8"><ellipse cx="342.36" cy="682.8" rx="40" ry="15" fill="url(#p5)" stroke="#e8590c" stroke-width="1"/></g>
<g><text x="342.36" y="682.8" text-anchor="middle" dominant-baseline="central" font-family='Nunito, "Avenir Next", "Segoe UI", Helvetica, Arial, sans-serif' font-size="9.5" fill="#e8590c">16-to-all</text></g>
<g><text x="1379.2" y="671.1" text-anchor="start" dominant-baseline="central" font-family='"Excalifont", "Segoe Print", "Bradley Hand", "Comic Sans MS", cursive' font-size="16" fill="#1e1e1e">units of 4 s vote</text><text x="1379.2" y="692.7" text-anchor="start" dominant-baseline="central" font-family='"Excalifont", "Segoe Print", "Bradley Hand", "Comic Sans MS", cursive' font-size="16" fill="#1e1e1e">+ 4 s aggregation,</text><text x="1379.2" y="714.3" text-anchor="start" dominant-baseline="central" font-family='"Excalifont", "Segoe Print", "Bradley Hand", "Comic Sans MS", cursive' font-size="16" fill="#1e1e1e">3 per slot</text><text x="1379.2" y="735.9" text-anchor="start" dominant-baseline="central" font-family='"Excalifont", "Segoe Print", "Bradley Hand", "Comic Sans MS", cursive' font-size="16" fill="#1e1e1e">= today's unit size</text><text x="1379.2" y="757.5" text-anchor="start" dominant-baseline="central" font-family='"Excalifont", "Segoe Print", "Bradley Hand", "Comic Sans MS", cursive' font-size="16" fill="#1e1e1e">(after consolidation)</text><text x="1379.2" y="779.1" text-anchor="start" dominant-baseline="central" font-family='"Excalifont", "Segoe Print", "Bradley Hand", "Comic Sans MS", cursive' font-size="16" fill="#1e1e1e">− uneven rewards</text></g>
</svg>